<?xml version="1.0" standalone="no"?>
<!DOCTYPE svg PUBLIC "-//W3C//DTD SVG 20010904//EN"
 "http://www.w3.org/TR/2001/REC-SVG-20010904/DTD/svg10.dtd">
<svg version="1.0" xmlns="http://www.w3.org/2000/svg"
 width="1608.000000pt" height="284.000000pt" viewBox="0 0 1608.000000 284.000000"
 preserveAspectRatio="xMidYMid meet">

<g transform="translate(0.000000,284.000000) scale(0.100000,-0.100000)"
fill="#f4ede4" stroke="none">
<path d="M2598 2590 c-166 -30 -292 -94 -404 -205 -65 -64 -90 -97 -123 -165
-78 -161 -76 -140 -76 -815 0 -673 -2 -652 75 -810 68 -138 174 -237 333 -310
184 -85 407 -95 606 -29 176 59 326 185 400 335 78 159 76 139 76 814 0 675 2
654 -76 815 -79 162 -246 295 -439 350 -84 24 -291 35 -372 20z m298 -404 c71
-33 127 -91 153 -160 20 -55 21 -71 21 -615 0 -625 0 -624 -69 -702 -131 -150
-389 -151 -520 -3 -73 83 -72 77 -69 720 l3 569 27 51 c26 49 85 111 127 133
85 46 235 49 327 7z"/>
<path d="M4488 2590 c-167 -30 -293 -94 -403 -205 -91 -91 -141 -175 -177
-300 -23 -80 -23 -84 -23 -675 0 -663 0 -660 70 -805 69 -143 173 -242 330
-315 143 -67 296 -91 451 -71 183 25 330 95 449 215 122 124 182 269 192 469
l6 117 -211 0 -212 0 0 -88 c0 -108 -18 -166 -70 -224 -131 -150 -389 -149
-521 1 -70 79 -70 77 -67 712 l3 564 23 50 c41 90 110 145 214 171 154 40 315
-22 383 -148 26 -47 30 -65 33 -155 l4 -103 211 0 210 0 -6 113 c-8 134 -23
192 -77 305 -78 163 -245 296 -440 352 -84 24 -291 35 -372 20z"/>
<path d="M12768 2580 c-155 -32 -312 -125 -405 -239 -25 -31 -63 -92 -85 -136
-67 -139 -68 -151 -68 -798 0 -651 0 -656 72 -807 56 -118 175 -236 298 -297
154 -76 312 -104 476 -84 183 22 325 90 450 215 65 65 89 98 122 166 71 151
72 157 72 804 0 653 -1 659 -75 813 -141 289 -495 440 -857 363z m336 -393
c73 -34 129 -87 157 -150 l24 -52 0 -565 c0 -661 3 -633 -89 -726 -74 -74
-131 -97 -245 -96 -126 0 -233 55 -285 145 -43 74 -47 135 -44 702 3 527 3
530 26 579 45 99 109 154 211 183 68 19 179 10 245 -20z"/>
<path d="M227 2563 c-4 -3 -7 -525 -7 -1160 l0 -1153 210 0 210 0 0 575 c0
454 3 575 13 575 6 -1 154 -259 327 -575 l315 -574 233 -1 232 0 -14 23 c-54
86 -536 928 -536 936 0 6 6 11 13 11 7 0 51 18 97 40 65 32 100 58 160 118 43
42 89 100 103 127 58 115 81 266 66 428 -33 351 -249 579 -592 626 -85 12
-819 15 -830 4z m799 -398 c147 -44 223 -173 211 -361 -8 -132 -59 -219 -157
-269 -69 -34 -137 -45 -295 -45 l-145 0 0 352 0 351 168 -6 c104 -4 186 -12
218 -22z"/>
<path d="M5810 1411 l0 -1161 205 0 205 0 0 965 c0 786 2 965 13 965 9 0 106
-310 286 -917 151 -505 282 -934 292 -954 9 -19 29 -40 44 -47 18 -9 120 -12
350 -12 l325 0 0 1160 0 1160 -210 0 -210 0 0 -970 c0 -598 -4 -970 -9 -970
-6 0 -21 37 -35 83 -14 45 -138 460 -276 922 -139 462 -261 857 -273 877 -11
20 -27 41 -36 45 -9 4 -163 9 -343 11 l-328 3 0 -1160z"/>
<path d="M8373 2555 c-17 -7 -38 -24 -46 -37 -8 -13 -126 -520 -261 -1128
-136 -608 -249 -1113 -252 -1122 -5 -17 9 -18 205 -18 116 0 211 2 211 3 0 2
14 71 30 152 17 81 30 150 30 152 0 1 166 3 369 3 l369 0 28 -145 c16 -80 31
-150 34 -156 4 -6 85 -8 211 -7 l205 3 -251 1120 c-138 616 -257 1131 -264
1143 -25 47 -61 52 -333 52 -193 -1 -261 -4 -285 -15z m436 -958 c74 -347 137
-642 139 -654 l4 -23 -292 0 c-273 0 -291 1 -286 18 7 24 276 1277 276 1285 0
4 6 7 13 7 8 0 56 -205 146 -633z"/>
<path d="M9500 2380 l0 -190 278 -2 277 -3 3 -967 2 -968 205 0 205 0 2 967 3
968 278 3 277 2 0 190 0 190 -765 0 -765 0 0 -190z"/>
<path d="M11360 1410 l0 -1160 210 0 210 0 0 1160 0 1160 -210 0 -210 0 0
-1160z"/>
<path d="M14130 1410 l0 -1160 210 0 210 0 0 965 c0 615 4 965 10 965 11 0
-11 72 314 -1020 237 -793 257 -857 286 -882 l30 -28 330 0 330 0 0 1160 0
1160 -205 0 -205 0 0 -964 c0 -630 -3 -967 -10 -971 -5 -3 -14 4 -20 17 -5 13
-131 430 -280 928 -149 498 -279 919 -289 935 -29 50 -56 54 -398 54 l-313 1
0 -1160z"/>
</g>
</svg>
