<svg width="387" height="469" viewBox="0 0 387 469" fill="none" xmlns="http://www.w3.org/2000/svg">
<path d="M0.484375 148.437C0.484375 139.563 0.484375 130.688 0.689146 121.584C1.07735 121.149 1.40102 120.959 1.42395 120.737C2.24068 112.847 4.61512 105.36 7.78798 98.1721C13.5525 85.1132 21.7967 73.8625 32.7718 64.5873C38.4884 59.7561 44.6294 55.6338 51.2502 52.2641C62.204 46.6889 73.9451 43.441 86.1583 42.6931C93.5229 42.2422 101.064 42.5913 108.365 43.6703C119.961 45.384 130.831 49.5959 140.947 55.6122C141.5 55.9412 142.112 56.1726 143.191 56.6838C143.191 55.4012 143.191 54.566 143.191 53.7307C143.191 44.3895 143.162 35.0481 143.239 25.7075C143.246 24.8607 143.691 23.6269 144.334 23.2395C148.393 20.7955 152.553 18.5166 156.704 16.2268C165.073 11.6105 173.467 7.04129 181.813 2.38559C182.472 2.01837 182.839 1.13035 183.342 0.484375C184.171 0.484377 185.001 0.484377 186.037 0.710975C186.244 48.2905 186.244 95.6433 186.244 142.949C204.811 141.6 222.197 145.051 238.411 153.779C254.71 162.554 267.282 175.095 276.047 191.495C263.232 198.566 250.791 205.43 238.62 212.146C236.515 209.222 234.533 206.337 232.416 203.555C226.981 196.413 219.698 191.814 211.466 188.562C205.112 186.052 198.491 185.532 191.719 185.62C184.418 185.715 177.683 187.79 171.303 191.029C164.98 194.239 159.671 198.753 155.183 204.319C148.146 213.046 144.632 223.05 144.257 234.1C144.123 238.062 144.837 242.123 145.664 246.033C147.937 256.782 153.618 265.676 161.927 272.67C169.173 278.77 177.549 282.64 187.163 283.919C195.904 285.083 204.236 284.104 211.818 279.841C217.982 276.375 223.814 272.215 229.412 267.873C238.018 261.197 246.874 255.061 257.016 250.897C264.18 247.956 271.538 245.622 279.198 244.752C286.077 243.97 293.059 243.645 299.98 243.806C305.291 243.929 310.664 244.744 315.856 245.927C324.576 247.913 333.059 250.809 340.655 255.669C346.107 259.157 351.659 262.632 356.533 266.846C363.309 272.703 369.13 279.511 373.819 287.264C380.255 297.908 384.848 309.171 386.553 321.546C386.601 321.9 387.162 322.183 387.484 322.499C387.484 331.373 387.484 340.248 387.28 349.352C386.699 351.267 386.357 352.961 385.941 354.636C383.675 363.773 380.662 372.582 375.972 380.849C371.708 388.365 366.607 395.214 360.524 401.225C351.816 409.83 341.733 416.513 330.319 421.185C321.502 424.794 312.38 427.254 302.941 427.774C294.619 428.231 286.247 428.242 277.917 426.553C269.786 424.904 261.951 422.594 254.504 418.979C251.458 417.499 248.485 415.868 245.262 414.193C245.262 415.306 245.262 416.104 245.262 416.901C245.262 426.083 245.287 435.264 245.216 444.445C245.21 445.222 244.774 446.361 244.175 446.71C238.601 449.959 232.967 453.106 227.313 456.215C220.369 460.032 213.378 463.762 206.444 467.595C205.713 467.999 205.227 468.844 204.627 469.484C203.955 469.484 203.283 469.484 202.41 469.258C202.208 421.658 202.208 374.285 202.208 327.057C173.959 328.848 149.035 320.512 128.683 300.374C108.293 280.198 99.631 255.33 101.545 226.765C96.8827 226.765 92.5114 227.026 88.1845 226.699C82.6999 226.285 77.1645 225.791 71.8063 224.621C62.2712 222.539 53.3408 218.733 44.9549 213.707C34.0647 207.18 24.9339 198.74 17.5314 188.436C9.61688 177.419 4.21406 165.329 1.89007 151.908C1.6819 150.706 0.965006 149.592 0.484375 148.437ZM69.6686 91.1307C63.7676 94.0991 58.7194 98.2801 54.6767 103.357C45.4367 114.96 41.3956 128.115 43.9926 143.037C45.7332 153.038 50.2038 161.62 57.0919 168.932C62.2055 174.361 68.3912 178.296 75.3654 181.021C83.9018 184.355 92.7759 185.243 101.654 183.602C112.99 181.507 122.636 176.087 130.425 167.326C137.369 159.514 141.462 150.451 142.597 140.256C143.639 130.895 142.233 121.697 137.865 113.16C133.315 104.268 126.882 97.1518 118.134 92.1612C109.135 87.0274 99.6377 84.6042 89.1842 85.4907C82.3544 86.07 76.0545 87.971 69.6686 91.1307ZM343.969 328.456C343.562 326.308 343.375 324.089 342.712 322.024C338.85 310.007 331.717 300.503 320.883 293.826C310.738 287.573 299.74 285.009 288.015 286.81C277.337 288.451 268.029 293.355 260.349 300.971C255.434 305.846 251.566 311.516 248.947 318.021C245.541 326.48 244.227 335.232 245.836 344.159C247.663 354.3 252.354 363.192 259.709 370.471C264.401 375.116 269.795 378.886 275.965 381.408C284.969 385.09 294.158 386.303 303.866 384.473C316.134 382.16 326.156 376.192 333.815 366.587C342.59 355.584 346.149 342.889 343.969 328.456Z" fill="#f4ede4"/>
</svg>
