<svg width="433" height="237" viewBox="0 0 433 237" fill="none" xmlns="http://www.w3.org/2000/svg">
<path d="M216.801 0C197.101 0 181.201 15.9 181.201 35.6C181.201 55.3 197.101 71.2 216.801 71.2C236.501 71.2 252.401 55.3 252.401 35.6C252.401 15.9 236.501 0 216.801 0ZM237.401 41.1L220.501 32.7V50.5L192.901 36.7L196.201 30.1L213.101 38.5V20.7L240.701 34.5L237.401 41.1ZM73.1008 189.9C66.8008 194.9 57.7008 197.4 45.9008 197.3H23.3008V234H0.800781V132H47.3008C58.0008 132 66.6008 134.6 73.0008 139.9C79.4008 145.2 82.6008 153.3 82.6008 164.3C82.6008 176.5 79.4008 185 73.1008 189.9ZM55.8008 153.2C52.9008 150.9 48.9008 149.8 43.7008 149.8H23.3008V179.8H43.7008C48.9008 179.8 52.9008 178.6 55.8008 176.1C58.7008 173.7 60.1008 169.8 60.1008 164.5C60.1008 159.2 58.6008 155.5 55.8008 153.2ZM86.1008 132.1H109.101V194.7C109.101 201.7 110.001 206.8 111.701 210.1C114.401 215.8 120.401 218.7 129.601 218.7C138.701 218.7 144.701 215.9 147.401 210.1C149.201 206.9 150.001 201.8 150.001 194.8V132.2H173.001V194.9C173.001 205.7 171.201 214.2 167.601 220.2C160.901 231.3 148.201 236.8 129.501 236.8C110.801 236.8 98.0008 231.2 91.3008 220.2C87.7008 214.2 85.9008 205.7 85.9008 194.9L86.1008 132.1ZM178.701 132.2H201.301V215.9H255.401V234.2L178.601 234.1L178.701 132.2ZM278.901 202.8C279.601 207.5 281.001 210.9 283.001 213.3C286.801 217.5 293.201 219.6 302.301 219.6C307.801 219.6 312.201 219.1 315.601 218C322.101 215.9 325.301 211.9 325.301 206.2C325.301 202.8 323.701 200.2 320.601 198.4C317.401 196.6 312.401 195 305.601 193.6L293.901 191.2C282.401 188.8 274.401 186.2 270.101 183.4C262.801 178.7 259.101 171.3 259.101 161.3C259.101 152.2 262.701 144.6 269.801 138.5C276.901 132.5 287.401 129.5 301.301 129.5C312.901 129.5 322.701 132.4 330.901 138.1C339.101 143.8 343.301 152.1 343.701 162.9H321.901C321.501 156.8 318.601 152.4 313.201 149.8C309.601 148.1 305.101 147.2 299.701 147.2C293.701 147.2 288.901 148.3 285.401 150.5C281.801 152.7 280.101 155.8 280.101 159.8C280.101 163.4 281.901 166.2 285.401 168C287.701 169.2 292.501 170.6 299.801 172.2L318.801 176.4C327.101 178.3 333.401 180.7 337.501 183.8C344.001 188.6 347.201 195.6 347.201 204.6C347.201 213.9 343.401 221.7 335.701 227.8C328.001 234 317.201 237 303.301 237C289.001 237 277.801 233.9 269.601 227.9C261.401 221.8 257.301 213.5 257.301 202.9L278.901 202.8ZM430.101 150.5H372.701V172.2H425.301V189.9H372.701V216.1L432.701 216.2V234.5L350.601 234.4V132.4L430.101 132.5V150.5Z" fill="#f4ede4"/>
</svg>
