<svg xmlns="http://www.w3.org/2000/svg" viewBox="0 0 519.6 361.8" enable-background="new 0 0 519.6 361.8"><path fill="#f4ede4" d="M259.8 0c-19.7 0-35.6 15.9-35.6 35.6s15.9 35.6 35.6 35.6 35.6-15.9 35.6-35.6S279.5 0 259.8 0zm20.6 41.1l-16.9-8.4v17.8l-27.6-13.8 3.3-6.6 16.9 8.4V20.7l27.6 13.8-3.3 6.6zM116.1 189.9c-6.3 5-15.4 7.5-27.2 7.4H66.3V234H43.8V132h46.5c10.7 0 19.3 2.6 25.7 7.9 6.4 5.3 9.6 13.4 9.6 24.4 0 12.2-3.2 20.7-9.5 25.6zm-17.3-36.7c-2.9-2.3-6.9-3.4-12.1-3.4H66.3v30h20.4c5.2 0 9.2-1.2 12.1-3.7 2.9-2.4 4.3-6.3 4.3-11.6s-1.5-9-4.3-11.3zm30.3-21.1h23v62.6c0 7 .9 12.1 2.6 15.4 2.7 5.7 8.7 8.6 17.9 8.6 9.1 0 15.1-2.8 17.8-8.6 1.8-3.2 2.6-8.3 2.6-15.3v-62.6h23v62.7c0 10.8-1.8 19.3-5.4 25.3-6.7 11.1-19.4 16.6-38.1 16.6-18.7 0-31.5-5.6-38.2-16.6-3.6-6-5.4-14.5-5.4-25.3l.2-62.8zm92.6.1h22.6v83.7h54.1v18.3l-76.8-.1.1-101.9zm100.2 70.6c.7 4.7 2.1 8.1 4.1 10.5 3.8 4.2 10.2 6.3 19.3 6.3 5.5 0 9.9-.5 13.3-1.6 6.5-2.1 9.7-6.1 9.7-11.8 0-3.4-1.6-6-4.7-7.8-3.2-1.8-8.2-3.4-15-4.8l-11.7-2.4c-11.5-2.4-19.5-5-23.8-7.8-7.3-4.7-11-12.1-11-22.1 0-9.1 3.6-16.7 10.7-22.8 7.1-6 17.6-9 31.5-9 11.6 0 21.4 2.9 29.6 8.6 8.2 5.7 12.4 14 12.8 24.8h-21.8c-.4-6.1-3.3-10.5-8.7-13.1-3.6-1.7-8.1-2.6-13.5-2.6-6 0-10.8 1.1-14.3 3.3-3.6 2.2-5.3 5.3-5.3 9.3 0 3.6 1.8 6.4 5.3 8.2 2.3 1.2 7.1 2.6 14.4 4.2l19 4.2c8.3 1.9 14.6 4.3 18.7 7.4 6.5 4.8 9.7 11.8 9.7 20.8 0 9.3-3.8 17.1-11.5 23.2-7.7 6.2-18.5 9.2-32.4 9.2-14.3 0-25.5-3.1-33.7-9.1-8.2-6.1-12.3-14.4-12.3-25l21.6-.1zm151.2-52.3h-57.4v21.7h52.6v17.7h-52.6v26.2l60 .1v18.3l-82.1-.1v-102l79.5.1v18zm-297.5 124h3.9v13H177v-10.9l-2.5 10.9H172l-2.4-10.9v10.9H167v-13h3.9l2.4 10.2 2.3-10.2zm7.4 0h2.8v8c0 .9.1 1.5.3 1.9.3.7 1 1.1 2.1 1.1s1.8-.4 2.1-1.1c.2-.4.3-1.1.3-1.9v-8h2.8v8c0 1.4-.2 2.4-.6 3.2-.8 1.4-2.3 2.1-4.6 2.1s-3.8-.7-4.6-2.1c-.4-.8-.6-1.8-.6-3.2v-8zm15.8 9c.1.6.2 1 .5 1.3.4.5 1.2.8 2.3.8.7 0 1.2-.1 1.6-.2.8-.3 1.2-.8 1.2-1.5 0-.4-.2-.8-.6-1-.4-.2-1-.4-1.8-.6l-1.4-.3c-1.4-.3-2.3-.6-2.8-1-.9-.6-1.3-1.5-1.3-2.8 0-1.2.4-2.1 1.3-2.9.9-.8 2.1-1.2 3.8-1.2 1.4 0 2.6.4 3.5 1.1 1 .7 1.5 1.8 1.5 3.2H204c0-.8-.4-1.3-1-1.7-.4-.2-1-.3-1.6-.3-.7 0-1.3.1-1.7.4s-.6.7-.6 1.2.2.8.6 1c.3.2.8.3 1.7.5l2.3.5c1 .2 1.7.5 2.2.9.8.6 1.2 1.5 1.2 2.6 0 1.2-.5 2.2-1.4 2.9-.9.8-2.2 1.2-3.9 1.2-1.7 0-3-.4-4-1.2-1-.8-1.5-1.8-1.5-3.2h2.5zm13.6 4h-2.7v-13h2.7v13zm4.7-11.6c1-1.1 2.4-1.6 4-1.6 2.2 0 3.7.7 4.7 2.1.6.8.8 1.6.9 2.4H224c-.2-.6-.4-1.1-.7-1.4-.5-.6-1.2-.8-2.1-.8-1 0-1.7.4-2.3 1.2-.6.8-.8 1.9-.8 3.4s.3 2.5.9 3.3 1.3 1.1 2.2 1.1c.9 0 1.6-.3 2.1-.9.3-.3.5-.8.7-1.5h2.7c-.2 1.4-.8 2.6-1.8 3.4s-2.2 1.3-3.7 1.3c-1.8 0-3.3-.6-4.3-1.8-1.1-1.2-1.6-2.8-1.6-4.9 0-2.4.6-4.1 1.8-5.3zm27.3 6c-.8.6-1.8.9-3.2.9h-2.7v4.7h-2.7v-13h5.6c1.3 0 2.3.3 3.1 1 .8.7 1.1 1.7 1.1 3.1-.1 1.6-.4 2.6-1.2 3.3zm-2.1-4.7c-.3-.3-.8-.4-1.4-.4h-2.4v3.8h2.4c.6 0 1.1-.2 1.4-.5s.5-.8.5-1.5-.1-1.1-.5-1.4zm6-2.7h2.8v8c0 .9.1 1.5.3 1.9.3.7 1 1.1 2.1 1.1s1.8-.4 2.1-1.1c.2-.4.3-1.1.3-1.9v-8h2.8v8c0 1.4-.2 2.4-.6 3.2-.8 1.4-2.3 2.1-4.6 2.1s-3.8-.7-4.6-2.1c-.4-.8-.6-1.8-.6-3.2v-8zm23.5 1.4c.4.6.6 1.2.6 2s-.2 1.4-.6 1.9c-.2.3-.6.5-1 .7.7.2 1.2.6 1.5 1.1.3.5.5 1.2.5 1.9 0 .8-.2 1.5-.6 2.1-.2.4-.6.7-.9 1-.4.3-.9.5-1.5.7-.6.1-1.2.2-1.8.2h-5.8v-13h6.3c1.5.1 2.6.5 3.3 1.4zm-7 .9v2.9h3.1c.6 0 1-.1 1.4-.3.4-.2.5-.6.5-1.1 0-.6-.2-1-.7-1.2-.4-.1-.9-.2-1.5-.2h-2.8zm0 5v3.5h3.1c.6 0 1-.1 1.3-.2.6-.3.9-.8.9-1.6 0-.7-.3-1.1-.8-1.4-.3-.1-.7-.2-1.3-.2h-3.2zm11.1-7.3h2.7v10.6h6.5v2.3h-9.2v-12.9zm14.3 13h-2.7v-13h2.7v13zm5.5-4c.1.6.2 1 .5 1.3.4.5 1.2.8 2.3.8.7 0 1.2-.1 1.6-.2.8-.3 1.2-.8 1.2-1.5 0-.4-.2-.8-.6-1-.4-.2-1-.4-1.8-.6l-1.4-.3c-1.4-.3-2.3-.6-2.8-1-.9-.6-1.3-1.5-1.3-2.8 0-1.2.4-2.1 1.3-2.9.9-.8 2.1-1.2 3.8-1.2 1.4 0 2.6.4 3.5 1.1 1 .7 1.5 1.8 1.5 3.2h-2.6c0-.8-.4-1.3-1-1.7-.4-.2-1-.3-1.6-.3-.7 0-1.3.1-1.7.4s-.6.7-.6 1.2.2.8.6 1c.3.2.8.3 1.7.5l2.3.5c1 .2 1.7.5 2.2.9.8.6 1.2 1.5 1.2 2.6 0 1.2-.5 2.2-1.4 2.9-.9.8-2.2 1.2-3.9 1.2-1.7 0-3-.4-4-1.2-1-.8-1.5-1.8-1.5-3.2h2.5zm11.1 4v-13h2.7v4.9h5v-4.9h2.7v13h-2.7v-5.8h-5v5.8h-2.7zm16.5 0h-2.7v-13h2.7v13zm3.4-13h2.8l5.1 9v-9h2.5v13h-2.7l-5.3-9.2v9.2h-2.5v-13zm22.8 4.1c-.2-.9-.7-1.5-1.5-1.9-.4-.2-.9-.3-1.5-.3-1 0-1.9.4-2.6 1.2-.7.8-1 2-1 3.5 0 1.6.4 2.7 1.1 3.4s1.6 1 2.5 1c.9 0 1.7-.3 2.2-.8.6-.5.9-1.2 1.1-2h-3v-2.2h5.4v7h-1.8l-.3-1.6c-.5.6-1 1-1.4 1.3-.7.4-1.6.7-2.6.7-1.7 0-3.1-.6-4.2-1.8-1.1-1.2-1.7-2.8-1.7-4.9 0-2.1.6-3.8 1.7-5s2.7-1.9 4.6-1.9c1.6 0 3 .4 4 1.3 1 .8 1.6 1.9 1.7 3.1h-2.7zM18.4 311.5h3.1l4.6 13h-2.9l-.9-2.7h-4.8l-.9 2.7h-2.8l4.6-13zm-.2 8.1h3.3l-1.6-5.1-1.7 5.1zm18.6-7.7c.5.2.9.5 1.2.9.3.3.5.7.7 1.1.2.4.2.9.2 1.4 0 .6-.2 1.2-.5 1.8-.3.6-.8 1-1.5 1.3.6.2 1 .6 1.3 1 .2.4.4 1.1.4 2v.9c0 .6 0 1 .1 1.2.1.3.2.6.5.7v.3h-3c-.1-.3-.1-.5-.2-.7-.1-.4-.1-.7-.1-1.1v-1.2c0-.8-.2-1.4-.4-1.7s-.8-.4-1.5-.4h-2.6v5.1h-2.6v-13H35c.6 0 1.3.2 1.8.4zm-5.6 1.9v3.5h2.9c.6 0 1-.1 1.3-.2.5-.2.8-.7.8-1.5s-.2-1.3-.7-1.6c-.3-.2-.7-.2-1.3-.2h-3zm20.5-2.3v2.3h-3.9v10.7h-2.7v-10.7h-3.9v-2.3h10.5zm5 13H54v-13h2.7v13zm5.5-4c.1.6.2 1 .5 1.3.4.5 1.2.8 2.3.8.7 0 1.2-.1 1.6-.2.8-.3 1.2-.8 1.2-1.5 0-.4-.2-.8-.6-1-.4-.2-1-.4-1.8-.6L64 319c-1.4-.3-2.3-.6-2.8-1-.9-.6-1.3-1.5-1.3-2.8 0-1.2.4-2.1 1.3-2.9.9-.8 2.1-1.2 3.8-1.2 1.4 0 2.6.4 3.5 1.1 1 .7 1.5 1.8 1.5 3.2h-2.6c0-.8-.4-1.3-1-1.7-.4-.2-1-.3-1.6-.3-.7 0-1.3.1-1.7.4s-.6.7-.6 1.2.2.8.6 1c.3.2.8.3 1.7.5l2.3.5c1 .2 1.7.5 2.2.9.8.6 1.2 1.5 1.2 2.6 0 1.2-.5 2.2-1.4 2.9-.9.8-2.2 1.2-3.9 1.2-1.7 0-3-.4-4-1.2-1-.8-1.5-1.8-1.5-3.2h2.5zm20.4-9v2.3h-3.9v10.7H76v-10.7h-3.9v-2.3h10.5zm.8 15.1c.5-.1.9-.4 1.1-.7s.4-.8.4-1.4h-1.5v-2.6h2.7v2.3c0 .4-.1.8-.2 1.2s-.3.8-.6 1.1c-.3.3-.7.6-1.1.8-.4.2-.7.3-.9.3v-1zm14.1-6.1c.1.6.2 1 .5 1.3.4.5 1.2.8 2.3.8.7 0 1.2-.1 1.6-.2.8-.3 1.2-.8 1.2-1.5 0-.4-.2-.8-.6-1-.4-.2-1-.4-1.8-.6l-1.4-.3c-1.4-.3-2.3-.6-2.8-1-.9-.6-1.3-1.5-1.3-2.8 0-1.2.4-2.1 1.3-2.9.9-.8 2.1-1.2 3.8-1.2 1.4 0 2.6.4 3.5 1.1 1 .7 1.5 1.8 1.5 3.2h-2.6c0-.8-.4-1.3-1-1.7-.4-.2-1-.3-1.6-.3-.7 0-1.3.1-1.7.4s-.6.7-.6 1.2.2.8.6 1c.3.2.8.3 1.7.5l2.3.5c1 .2 1.7.5 2.2.9.8.6 1.2 1.5 1.2 2.6 0 1.2-.5 2.2-1.4 2.9-.9.8-2.2 1.2-3.9 1.2-1.7 0-3-.4-4-1.2-1-.8-1.5-1.8-1.5-3.2h2.5zm20.9 2.8c-1 1-2.4 1.5-4.2 1.5s-3.3-.5-4.2-1.5c-1.3-1.2-2-3-2-5.3 0-2.4.7-4.2 2-5.3 1-1 2.4-1.5 4.2-1.5s3.3.5 4.2 1.5c1.3 1.2 2 3 2 5.3-.1 2.3-.7 4.1-2 5.3zm-1.7-1.9c.6-.8.9-1.9.9-3.4s-.3-2.6-.9-3.4-1.5-1.2-2.6-1.2-1.9.4-2.6 1.2-1 1.9-1 3.4.3 2.6 1 3.4 1.5 1.2 2.6 1.2 1.9-.4 2.6-1.2zm6.6-9.9h2.8l5.1 9v-9h2.5v13H131l-5.3-9.2v9.2h-2.5v-13zm22.7 4.1c-.2-.9-.7-1.5-1.5-1.9-.4-.2-.9-.3-1.5-.3-1 0-1.9.4-2.6 1.2-.7.8-1 2-1 3.5 0 1.6.4 2.7 1.1 3.4s1.6 1 2.5 1c.9 0 1.7-.3 2.2-.8.6-.5.9-1.2 1.1-2h-3v-2.2h5.4v7h-1.8l-.3-1.6c-.5.6-1 1-1.4 1.3-.7.4-1.6.7-2.6.7-1.7 0-3.1-.6-4.2-1.8-1.1-1.2-1.7-2.8-1.7-4.9 0-2.1.6-3.8 1.7-5s2.7-1.9 4.6-1.9c1.6 0 3 .4 4 1.3 1 .8 1.6 1.9 1.7 3.1H146zm7.5-4.1l1.7 7.4.4 2.1.4-2 1.5-7.5h2.9l1.5 7.4.4 2.1.4-2 1.7-7.5h2.8l-3.6 13H161l-1.6-7.6-.5-2.5-.5 2.5-1.6 7.6h-2.5l-3.7-13h2.9zm24.4.4c.5.2.9.5 1.2.9.3.3.5.7.7 1.1.2.4.2.9.2 1.4 0 .6-.2 1.2-.5 1.8-.3.6-.8 1-1.5 1.3.6.2 1 .6 1.3 1 .2.4.4 1.1.4 2v.9c0 .6 0 1 .1 1.2.1.3.2.6.5.7v.3h-3c-.1-.3-.1-.5-.2-.7-.1-.4-.1-.7-.1-1.1v-1.2c0-.8-.2-1.4-.4-1.7s-.8-.4-1.5-.4h-2.6v5.1h-2.6v-13h6.2c.6 0 1.3.2 1.8.4zm-5.6 1.9v3.5h2.9c.6 0 1-.1 1.3-.2.5-.2.8-.7.8-1.5s-.2-1.3-.7-1.6c-.3-.2-.7-.2-1.3-.2h-3zm13.6 10.7h-2.7v-13h2.7v13zm12.9-13v2.3h-3.9v10.7h-2.7v-10.7h-3.9v-2.3h10.5zm12 2.3h-6.9v2.8h6.3v2.2h-6.3v3.3h7.2v2.3h-9.8v-13h9.5v2.4zm11.5-1.9c.5.2.9.5 1.2.9.3.3.5.7.7 1.1.2.4.2.9.2 1.4 0 .6-.2 1.2-.5 1.8-.3.6-.8 1-1.5 1.3.6.2 1 .6 1.3 1 .2.4.4 1.1.4 2v.9c0 .6 0 1 .1 1.2.1.3.2.6.5.7v.3h-3c-.1-.3-.1-.5-.2-.7-.1-.4-.1-.7-.1-1.1v-1.2c0-.8-.2-1.4-.4-1.7s-.8-.4-1.5-.4h-2.6v5.1h-2.6v-13h6.2c.6 0 1.3.2 1.8.4zm-5.6 1.9v3.5h2.9c.6 0 1-.1 1.3-.2.5-.2.8-.7.8-1.5s-.2-1.3-.7-1.6c-.3-.2-.7-.2-1.3-.2h-3zm17.3 5.3c.4-.6 1-1.1 1.9-1.7l.3-.2c-.4-.4-.7-.9-.9-1.3-.2-.4-.3-.9-.3-1.4 0-.9.3-1.7 1-2.2.6-.5 1.5-.8 2.5-.8.9 0 1.7.3 2.3.8s.9 1.2.9 2.1c0 .8-.2 1.4-.5 1.9-.4.5-.9.9-1.6 1.3l1.9 2.3c.2-.3.4-.6.5-1s.2-.7.2-1.1h2.2c0 .8-.2 1.6-.6 2.4-.2.5-.5 1-.9 1.5l2.4 2.8h-3l-.9-1.1c-.4.4-.8.7-1.2.9-.7.3-1.5.5-2.3.5-1.3 0-2.4-.4-3.1-1.2-.7-.8-1.1-1.6-1.1-2.6-.3-.7-.1-1.4.3-1.9zm2.4 3.1c.4.4.8.5 1.4.5.4 0 .8-.1 1.2-.3s.7-.4.9-.6l-2.4-3c-.6.4-1.1.8-1.3 1.1-.2.3-.3.7-.3 1 0 .5.2.9.5 1.3zm1.1-7c.1.2.3.5.7.9.4-.2.6-.5.8-.6.3-.3.5-.7.5-1 0-.3-.1-.5-.3-.7-.2-.2-.5-.3-.8-.3-.2 0-.4.1-.6.2-.3.2-.5.5-.5.9 0 .1.1.4.2.6zm24.8 3.7c-.8.6-1.8.9-3.2.9h-2.7v4.7h-2.7v-13h5.6c1.3 0 2.3.3 3.1 1 .8.7 1.1 1.7 1.1 3.1-.1 1.6-.5 2.6-1.2 3.3zm-2.1-4.7c-.3-.3-.8-.4-1.4-.4h-2.4v3.8h2.4c.6 0 1.1-.2 1.4-.5s.5-.8.5-1.5-.1-1.1-.5-1.4zm14.2-2.3c.5.2.9.5 1.2.9.3.3.5.7.7 1.1.2.4.2.9.2 1.4 0 .6-.2 1.2-.5 1.8-.3.6-.8 1-1.5 1.3.6.2 1 .6 1.3 1 .2.4.4 1.1.4 2v.9c0 .6 0 1 .1 1.2.1.3.2.6.5.7v.3h-3c-.1-.3-.1-.5-.2-.7-.1-.4-.1-.7-.1-1.1v-1.2c0-.8-.2-1.4-.4-1.7s-.8-.4-1.5-.4H269v5.1h-2.6v-13h6.2c.7 0 1.4.2 1.8.4zm-5.6 1.9v3.5h2.9c.6 0 1-.1 1.3-.2.5-.2.8-.7.8-1.5s-.2-1.3-.7-1.6c-.3-.2-.7-.2-1.3-.2h-3zm20.9 9.5c-1 1-2.4 1.5-4.2 1.5s-3.3-.5-4.2-1.5c-1.3-1.2-2-3-2-5.3 0-2.4.7-4.2 2-5.3 1-1 2.4-1.5 4.2-1.5s3.3.5 4.2 1.5c1.3 1.2 2 3 2 5.3s-.7 4.1-2 5.3zm-1.7-1.9c.6-.8.9-1.9.9-3.4s-.3-2.6-.9-3.4-1.5-1.2-2.6-1.2-1.9.4-2.6 1.2-1 1.9-1 3.4.3 2.6 1 3.4 1.5 1.2 2.6 1.2 2-.4 2.6-1.2zm14.3-9.6c.9.3 1.6.8 2.2 1.6.5.6.8 1.3.9 2.1s.2 1.5.2 2.1c0 1.7-.3 3.2-1 4.4-.9 1.6-2.4 2.4-4.3 2.4h-5.6v-13h5.6c.8.1 1.4.2 2 .4zm-5 2v8.5h2.5c1.3 0 2.2-.6 2.7-1.9.3-.7.4-1.5.4-2.5 0-1.3-.2-2.3-.6-3-.4-.7-1.2-1.1-2.5-1.1h-2.5zm11.2-2.3h2.8v8c0 .9.1 1.5.3 1.9.3.7 1 1.1 2.1 1.1s1.8-.4 2.1-1.1c.2-.4.3-1.1.3-1.9v-8h2.8v8c0 1.4-.2 2.4-.6 3.2-.8 1.4-2.3 2.1-4.6 2.1s-3.8-.7-4.6-2.1c-.4-.8-.6-1.8-.6-3.2v-8zm15.2 1.4c1-1.1 2.4-1.6 4-1.6 2.2 0 3.7.7 4.7 2.1.6.8.8 1.6.9 2.4h-2.7c-.2-.6-.4-1.1-.7-1.4-.5-.6-1.2-.8-2.1-.8-1 0-1.7.4-2.3 1.2-.6.8-.8 1.9-.8 3.4s.3 2.5.9 3.3c.6.7 1.3 1.1 2.2 1.1.9 0 1.6-.3 2.1-.9.3-.3.5-.8.7-1.5h2.7c-.2 1.4-.8 2.6-1.8 3.4-1 .9-2.2 1.3-3.7 1.3-1.8 0-3.3-.6-4.3-1.8-1.1-1.2-1.6-2.8-1.6-4.9 0-2.4.6-4.1 1.8-5.3zm22 .9h-6.9v2.8h6.3v2.2h-6.3v3.3h7.2v2.3h-9.8v-13h9.5v2.4zm11.6-1.9c.5.2.9.5 1.2.9.3.3.5.7.7 1.1s.2.9.2 1.4c0 .6-.2 1.2-.5 1.8-.3.6-.8 1-1.5 1.3.6.2 1 .6 1.3 1 .2.4.4 1.1.4 2v.9c0 .6 0 1 .1 1.2.1.3.2.6.5.7v.3h-3c-.1-.3-.1-.5-.2-.7-.1-.4-.1-.7-.1-1.1v-1.2c0-.8-.2-1.4-.4-1.7s-.8-.4-1.5-.4h-2.6v5.1H349v-13h6.2c.9 0 1.6.2 2.1.4zm-5.6 1.9v3.5h2.9c.6 0 1-.1 1.3-.2.5-.2.8-.7.8-1.5s-.2-1.3-.7-1.6c-.3-.2-.7-.2-1.3-.2h-3zm25.7-2.3h3.9v13h-2.5v-10.9l-2.5 10.9h-2.6l-2.4-10.9v10.9h-2.5v-13h3.9l2.4 10.2 2.3-10.2zm10.9 0h3.1l4.6 13h-3l-.9-2.7h-4.8l-.9 2.7h-2.8l4.7-13zm-.1 8.1h3.3l-1.6-5.1-1.7 5.1zm10.2-8.1h2.8l5.1 9v-9h2.5v13h-2.7l-5.3-9.2v9.2h-2.5v-13zm17.6 0h3.1l4.6 13h-2.9l-.9-2.7h-4.8l-.9 2.7h-2.8l4.6-13zm-.2 8.1h3.3l-1.6-5.1-1.7 5.1zm18.6-4c-.2-.9-.7-1.5-1.5-1.9-.4-.2-.9-.3-1.5-.3-1 0-1.9.4-2.6 1.2-.7.8-1 2-1 3.5 0 1.6.4 2.7 1.1 3.4s1.6 1 2.5 1c.9 0 1.7-.3 2.2-.8.6-.5.9-1.2 1.1-2h-3v-2.2h5.4v7h-1.8l-.3-1.6c-.5.6-1 1-1.4 1.3-.7.4-1.6.7-2.6.7-1.7 0-3.1-.6-4.2-1.8-1.1-1.2-1.7-2.8-1.7-4.9 0-2.1.6-3.8 1.7-5s2.7-1.9 4.6-1.9c1.6 0 3 .4 4 1.3 1 .8 1.6 1.9 1.7 3.1h-2.7zm15.7-1.8h-6.9v2.8h6.3v2.2h-6.3v3.3h7.2v2.3h-9.8v-13h9.5v2.4zm11.9-2.3h3.9v13h-2.5v-10.9l-2.5 10.9h-2.6l-2.4-10.9v10.9h-2.5v-13h3.9l2.4 10.2 2.3-10.2zm16.9 2.3H472v2.8h6.3v2.2H472v3.3h7.2v2.3h-9.8v-13h9.5v2.4zm3.2-2.3h2.8l5.1 9v-9h2.5v13h-2.7l-5.3-9.2v9.2H482v-13zm23.4 0v2.3h-3.9v10.7h-2.7v-10.7H495v-2.3h10.5zm-318.7 37h3.9v13h-2.5v-10.9l-2.5 10.9h-2.6l-2.4-10.9v10.9h-2.5v-13h3.9l2.4 10.2 2.3-10.2zm7.4 0h2.8v8c0 .9.1 1.5.3 1.9.3.7 1 1.1 2.1 1.1s1.8-.4 2.1-1.1c.2-.4.3-1.1.3-1.9v-8h2.8v8c0 1.4-.2 2.4-.6 3.2-.8 1.4-2.3 2.1-4.6 2.1s-3.8-.7-4.6-2.1c-.4-.8-.6-1.8-.6-3.2v-8zm15.8 9c.1.6.2 1 .5 1.3.4.5 1.2.8 2.3.8.7 0 1.2-.1 1.6-.2.8-.3 1.2-.8 1.2-1.5 0-.4-.2-.8-.6-1-.4-.2-1-.4-1.8-.6l-1.4-.3c-1.4-.3-2.3-.6-2.8-1-.9-.6-1.3-1.5-1.3-2.8 0-1.2.4-2.1 1.3-2.9.9-.8 2.1-1.2 3.8-1.2 1.4 0 2.6.4 3.5 1.1 1 .7 1.5 1.8 1.5 3.2h-2.6c0-.8-.4-1.3-1-1.7-.4-.2-1-.3-1.6-.3-.7 0-1.3.1-1.7.4s-.6.7-.6 1.2.2.8.6 1c.3.2.8.3 1.7.5l2.3.5c1 .2 1.7.5 2.2.9.8.6 1.2 1.5 1.2 2.6 0 1.2-.5 2.2-1.4 2.9-.9.8-2.2 1.2-3.9 1.2-1.7 0-3-.4-4-1.2-1-.8-1.5-1.8-1.5-3.2h2.5zm13.6 4h-2.7v-13h2.7v13zm4.8-11.6c1-1.1 2.4-1.6 4-1.6 2.2 0 3.7.7 4.7 2.1.6.8.8 1.6.9 2.4h-2.7c-.2-.6-.4-1.1-.7-1.4-.5-.6-1.2-.8-2.1-.8-1 0-1.7.4-2.3 1.2-.6.8-.8 1.9-.8 3.4s.3 2.5.9 3.3 1.3 1.1 2.2 1.1c.9 0 1.6-.3 2.1-.9.3-.3.5-.8.7-1.5h2.7c-.2 1.4-.8 2.6-1.8 3.4s-2.2 1.3-3.7 1.3c-1.8 0-3.3-.6-4.3-1.8-1.1-1.2-1.6-2.8-1.6-4.9 0-2.4.6-4.1 1.8-5.3zm20.5 7.6c.1.6.2 1 .5 1.3.4.5 1.2.8 2.3.8.7 0 1.2-.1 1.6-.2.8-.3 1.2-.8 1.2-1.5 0-.4-.2-.8-.6-1-.4-.2-1-.4-1.8-.6l-1.4-.3c-1.4-.3-2.3-.6-2.8-1-.9-.6-1.3-1.5-1.3-2.8 0-1.2.4-2.1 1.3-2.9.9-.8 2.1-1.2 3.8-1.2 1.4 0 2.6.4 3.5 1.1 1 .7 1.5 1.8 1.5 3.2H254c0-.8-.4-1.3-1-1.7-.4-.2-1-.3-1.6-.3-.7 0-1.3.1-1.7.4s-.6.7-.6 1.2.2.8.6 1c.3.2.8.3 1.7.5l2.3.5c1 .2 1.7.5 2.2.9.8.6 1.2 1.5 1.2 2.6 0 1.2-.5 2.2-1.4 2.9-.9.8-2.2 1.2-3.9 1.2-1.7 0-3-.4-4-1.2-1-.8-1.5-1.8-1.5-3.2h2.6zm20.5-6.7h-6.9v2.8h6.3v2.2h-6.3v3.3h7.2v2.3h-9.8v-13h9.5v2.4zm11.6-1.9c.5.2.9.5 1.2.9.3.3.5.7.7 1.1.2.4.2.9.2 1.4 0 .6-.2 1.2-.5 1.8-.3.6-.8 1-1.5 1.3.6.2 1 .6 1.3 1 .2.4.4 1.1.4 2v.9c0 .6 0 1 .1 1.2.1.3.2.6.5.7v.3h-3c-.1-.3-.1-.5-.2-.7-.1-.4-.1-.7-.1-1.1v-1.2c0-.8-.2-1.4-.4-1.7s-.8-.4-1.5-.4h-2.6v5.1H273v-13h6.2c.6 0 1.3.2 1.8.4zm-5.6 1.9v3.5h2.9c.6 0 1-.1 1.3-.2.5-.2.8-.7.8-1.5s-.2-1.3-.7-1.6c-.3-.2-.7-.2-1.3-.2h-3zm18.2-2.3h2.8l-4.4 13h-2.6l-4.4-13h2.9l2.8 9.8 2.9-9.8zm7.9 13h-2.7v-13h2.7v13zm4.7-11.6c1-1.1 2.4-1.6 4-1.6 2.2 0 3.7.7 4.7 2.1.6.8.8 1.6.9 2.4h-2.7c-.2-.6-.4-1.1-.7-1.4-.5-.6-1.2-.8-2.1-.8-1 0-1.7.4-2.3 1.2-.6.8-.8 1.9-.8 3.4s.3 2.5.9 3.3c.6.7 1.3 1.1 2.2 1.1.9 0 1.6-.3 2.1-.9.3-.3.5-.8.7-1.5h2.7c-.2 1.4-.8 2.6-1.8 3.4-1 .9-2.2 1.3-3.7 1.3-1.8 0-3.3-.6-4.3-1.8-1.1-1.2-1.6-2.8-1.6-4.9 0-2.4.6-4.1 1.8-5.3zm22.1.9h-6.9v2.8h6.3v2.2h-6.3v3.3h7.2v2.3h-9.8v-13h9.5v2.4zm5.2 6.7c.1.6.2 1 .5 1.3.4.5 1.2.8 2.3.8.7 0 1.2-.1 1.6-.2.8-.3 1.2-.8 1.2-1.5 0-.4-.2-.8-.6-1-.4-.2-1-.4-1.8-.6l-1.4-.3c-1.4-.3-2.3-.6-2.8-1-.9-.6-1.3-1.5-1.3-2.8 0-1.2.4-2.1 1.3-2.9s2.1-1.2 3.8-1.2c1.4 0 2.6.4 3.5 1.1 1 .7 1.5 1.8 1.5 3.2h-2.6c0-.8-.4-1.3-1-1.7-.4-.2-1-.3-1.6-.3-.7 0-1.3.1-1.7.4s-.6.7-.6 1.2.2.8.6 1c.3.2.8.3 1.7.5l2.3.5c1 .2 1.7.5 2.2.9.8.6 1.2 1.5 1.2 2.6 0 1.2-.5 2.2-1.4 2.9-.9.8-2.2 1.2-3.9 1.2-1.7 0-3-.4-4-1.2-1-.8-1.5-1.8-1.5-3.2h2.5zm186.1-74.6H374.9v-3h144.7v3zm-374.9 0H0v-3h144.7v3zm374.9 72.8H374.9v-3h144.7v3zm-374.9 0H0v-3h144.7v3z"/></svg>