<svg width="533" height="315" viewBox="0 0 533 315" fill="none" xmlns="http://www.w3.org/2000/svg">
<path fill-rule="evenodd" clip-rule="evenodd" d="M308.916 201C290.039 266.828 229.395 315 157.5 315C70.5152 315 0 244.485 0 157.5C0 70.5152 70.5152 0 157.5 0C229.395 0 290.039 48.172 308.916 114H223.622C209.44 92.8906 185.342 79 158 79C114.37 79 79 114.37 79 158C79 201.63 114.37 237 158 237C185.772 237 210.197 222.67 224.283 201H308.916Z" fill="#F4EDE4"/>
<path fill-rule="evenodd" clip-rule="evenodd" d="M375.502 315C462.487 315 533.002 244.485 533.002 157.5C533.002 70.5152 462.487 0 375.502 0C303.607 0 242.963 48.172 224.086 114H310.38C324.562 92.8906 348.66 79 376.002 79C419.632 79 455.002 114.37 455.002 158C455.002 201.63 419.632 237 376.002 237C348.23 237 323.805 222.67 309.719 201H308.916C301.146 228.098 286.298 252.203 266.501 271.189C294.797 298.325 333.202 315 375.502 315Z" fill="#CFC9C1"/>
</svg>
